# xmcd
#
# Track frame offsets:
#	150
#	16476
#	33287
#	48897
#	64214
#	79383
#	92277
#	106385
#	119671
#	138284
#
# Disc length: 2061 seconds
#
# Revision: 0
# Processed by: cddbd v1.4PL0 Copyright (c) Steve Scherf et al.
# Submitted via: dBpowerAMP V4.0
#
DISCID=7e080b0a
DTITLE=Mickey Giley - Invitation Only
DYEAR=2003
DGENRE=Country
TTITLE0=I Dont Know Your Memory Loved Jamaica
TTITLE1=All Ive Got Against Him Is You
TTITLE2=Dancing to the Beat of a Broken Heart
TTITLE3=Keep the Night Away
TTITLE4=Invitation Only
TTITLE5=All Night Long
TTITLE6=Sadly Ever After
TTITLE7=Sure Got This Old Redneck Feeling Blue
TTITLE8=Gods Country
TTITLE9=Under a Blue Moon Tonight
EXTD=
EXTT0=
EXTT1=
EXTT2=
EXTT3=
EXTT4=
EXTT5=
EXTT6=
EXTT7=
EXTT8=
EXTT9=
PLAYORDER=
